<svg xmlns="http://www.w3.org/2000/svg" width="32" height="32" viewBox="0 0 32 32">
  <g id="Link_Button_Icon" data-name="Link Button Icon" transform="translate(32 32) rotate(180)">
    <path id="Arrow_Icon_Path" data-name="Arrow Icon Path" d="M27,0H5A5.006,5.006,0,0,0,0,5V27a5.006,5.006,0,0,0,5,5H27a5.006,5.006,0,0,0,5-5V5a5.006,5.006,0,0,0-5-5Zm3,27a3,3,0,0,1-3,3H5a3,3,0,0,1-3-3V5A3,3,0,0,1,5,2H27a3,3,0,0,1,3,3Z" fill="#fff"/>
    <path id="Outer_Box_Icon_Path" data-name="Outer Box Icon Path" d="M25.293,5.293,8,22.586V17H6v8a1,1,0,0,0,1,1h8V24H9.414L26.707,6.707Z" fill="#fff"/>
  </g>
</svg>
